# xmcd CD database file
#
# Track frame offsets:
#	150
#	17225
#	37625
#
# Disc length: 784 seconds
#
# Revision: 3
# Processed by: cddbd v1.5.2PL0 Copyright (c) Steve Scherf et al.
# Submitted via: CDex 1.77
#
DISCID=15030e03
DTITLE=Jacknife Lee - Bursting off the Backbeat [CDS)
DYEAR=1999
DGENRE=Techno
TTITLE0=Bursting off the Backbeat
TTITLE1=1972 square dance documentary in sound
TTITLE2=Bursting off the Backbeat (Jacknife Lee mix)
EXTD=YEAR: 1999
EXTT0=
EXTT1=
EXTT2=
PLAYORDER=
